<svg xmlns="http://www.w3.org/2000/svg" xmlns:xlink="http://www.w3.org/1999/xlink" width="512" height="512" x="0" y="0" viewBox="0 0 36 36" style="enable-background:new 0 0 512 512" xml:space="preserve" class=""><g><path d="M29.2 8.4V7.33A5.33 5.33 0 0 0 23.87 2H11.5a5.35 5.35 0 0 0-3.9 1.69L5 6.44a5.32 5.32 0 0 0-1.4 3.64v18.59A5.33 5.33 0 0 0 8.93 34h14.94a5.34 5.34 0 0 0 5.33-5.33V28l2.26-2.26a3.18 3.18 0 0 0 .94-2.26V11.6a3.2 3.2 0 0 0-3.2-3.2zm1.07 3.2v2.13H26V11.6a1.07 1.07 0 0 1 1.07-1.07h2.13a1.07 1.07 0 0 1 1.07 1.07zm-6.4 20.27H8.93a3.2 3.2 0 0 1-3.2-3.2V10.08a3.19 3.19 0 0 1 .86-2.18l2.57-2.75a3.21 3.21 0 0 1 2.34-1h12.37a3.2 3.2 0 0 1 3.2 3.2V8.4a3.2 3.2 0 0 0-3.2 3.2v11.92a3.18 3.18 0 0 0 .94 2.26L27.07 28v.63a3.2 3.2 0 0 1-3.2 3.24zm6.13-7.6-1.82 1.82-1.82-1.82a1.08 1.08 0 0 1-.31-.75v-7.65h4.27v7.65a1.08 1.08 0 0 1-.32.75z" fill="#1e64f0" opacity="1" data-original="#000000" class=""/><path d="M8.93 10.53h6.4v2.13h-6.4zM8.93 15.87h11.73V18H8.93zM8.93 20.13h11.73v2.13H8.93zM8.93 24.4h11.73v2.13H8.93z" fill="#1e64f0" opacity="1" data-original="#000000" class=""/></g></svg>