<svg xmlns="http://www.w3.org/2000/svg" xmlns:xlink="http://www.w3.org/1999/xlink" width="512" height="512" x="0" y="0" viewBox="0 0 64 64" style="enable-background:new 0 0 512 512" xml:space="preserve" class=""><g><path d="M59.455 15.046A8.913 8.913 0 0 0 60 12c0-6.065-6.28-11-14-11S32 5.935 32 12a8.916 8.916 0 0 0 .527 3H5a4 4 0 0 0-4 4v31a4 4 0 0 0 4 4h20.719l-.5 2H23a3 3 0 0 0-3 3v3a1 1 0 0 0 1 1h22a1 1 0 0 0 1-1v-3a3 3 0 0 0-3-3h-2.219l-.5-2H59a4 4 0 0 0 4-4V19a3.992 3.992 0 0 0-3.545-3.954ZM59 17a2 2 0 0 1 2 2v12H43v-8.272c.091.015.179.037.271.051l1.834 3.668a1 1 0 0 0 1.79 0l1.834-3.668A13.957 13.957 0 0 0 58.476 17Zm-9 22a2 2 0 1 1 2 2 2 2 0 0 1-2-2Zm2 4a4 4 0 0 1 4 4h-8a4 4 0 0 1 4-4Zm2.893-1.253a4 4 0 1 0-5.786 0A6 6 0 0 0 46 47h-3V33h18v14h-3a6 6 0 0 0-3.107-5.253ZM30 39a2 2 0 1 1 2 2 2 2 0 0 1-2-2Zm2 4a4 4 0 0 1 4 4h-8a4 4 0 0 1 4-4Zm2.893-1.253a4 4 0 1 0-5.786 0A6 6 0 0 0 26 47h-3V33h18v14h-3a6 6 0 0 0-3.107-5.253ZM10 39a2 2 0 1 1 2 2 2 2 0 0 1-2-2Zm2 4a4 4 0 0 1 4 4H8a4 4 0 0 1 4-4Zm2.893-1.253a4 4 0 1 0-5.786 0A6 6 0 0 0 6 47H3V33h18v14h-3a6 6 0 0 0-3.107-5.253ZM10 23a2 2 0 1 1 2 2 2 2 0 0 1-2-2Zm2 4a4 4 0 0 1 4 4H8a4 4 0 0 1 4-4Zm18-4a2 2 0 1 1 2 2 2 2 0 0 1-2-2Zm2 4a4 4 0 0 1 4 4h-8a4 4 0 0 1 4-4ZM46 3c6.617 0 12 4.037 12 9 0 4.35-4.322 8.162-10.053 8.869a1 1 0 0 0-.772.545L46 23.764l-1.175-2.35a1 1 0 0 0-.772-.545C38.322 20.162 34 16.35 34 12c0-4.963 5.383-9 12-9Zm-5 19.269V31h-3a6 6 0 0 0-3.107-5.253 4 4 0 1 0-5.786 0A6 6 0 0 0 26 31h-3V17h10.524A13.25 13.25 0 0 0 41 22.269ZM5 17h16v14h-3a6 6 0 0 0-3.107-5.253 4 4 0 1 0-5.786 0A6 6 0 0 0 6 31H3V19a2 2 0 0 1 2-2Zm37 42v2H22v-2a1 1 0 0 1 1-1h18a1 1 0 0 1 1 1Zm-5.281-3h-9.438l.5-2h8.438ZM59 52H5a2 2 0 0 1-2-2v-1h58v1a2 2 0 0 1-2 2Z" fill="#1e64f0" opacity="1" data-original="#000000" class=""/><path d="M39 11h2v2h-2zM43 11h2v2h-2zM47 11h2v2h-2zM51 11h2v2h-2z" fill="#1e64f0" opacity="1" data-original="#000000" class=""/></g></svg>