<svg xmlns="http://www.w3.org/2000/svg" xmlns:xlink="http://www.w3.org/1999/xlink" width="512" height="512" x="0" y="0" viewBox="0 0 512 512" style="enable-background:new 0 0 512 512" xml:space="preserve" class=""><g><path d="M346 23.938h-72.832V10c0-5.523-4.477-10-10-10H112.832c-5.523 0-10 4.477-10 10v13.938H30c-16.543 0-30 13.457-30 30V482c0 16.543 13.457 30 30 30h88.203c5.524 0 10-4.477 10-10s-4.476-10-10-10H30c-5.516 0-10-4.484-10-10V53.937c0-5.511 4.484-10 10-10h72.832v.813c0 17.23 14.02 31.25 31.25 31.25h107.832c17.234 0 31.25-14.02 31.25-31.25v-.813H346c5.516 0 10 4.489 10 10V429h-33c-16.543 0-30 13.457-30 30v33h-94.793c-5.523 0-10 4.477-10 10s4.477 10 10 10H303a10 10 0 0 0 7.07-2.93l63-63A10 10 0 0 0 376 439V53.937c0-16.542-13.457-30-30-30zM253.168 44.75c0 6.203-5.047 11.25-11.25 11.25H134.082c-6.203 0-11.25-5.047-11.25-11.25V20h130.332v24.75zM323 449h18.86L313 477.86V459c0-5.516 4.484-10 10-10zm0 0" fill="#1e64f0" opacity="1" data-original="#000000" class=""/><path d="M93.945 315.508a9.996 9.996 0 0 0-14.14 0c-3.907 3.902-3.907 10.234 0 14.14l16.36 16.364c1.952 1.953 4.51 2.93 7.07 2.93s5.12-.977 7.07-2.93l38.05-38.051c3.907-3.906 3.907-10.238 0-14.145-3.906-3.902-10.238-3.902-14.14 0l-30.98 30.98zM187.633 348.813h50.781c5.524 0 10-4.477 10-10s-4.476-10-10-10h-50.781c-5.524 0-10 4.476-10 10s4.476 10 10 10zM289.195 288.813H187.633c-5.524 0-10 4.476-10 10s4.476 10 10 10h101.562c5.524 0 10-4.477 10-10s-4.476-10-10-10zM79.805 422.648l16.36 16.364a9.968 9.968 0 0 0 7.07 2.93 9.97 9.97 0 0 0 7.074-2.93l38.046-38.051c3.907-3.906 3.907-10.238 0-14.145-3.902-3.902-10.234-3.902-14.14 0l-30.98 30.98-9.29-9.288c-3.906-3.906-10.238-3.906-14.144 0-3.903 3.906-3.903 10.238.004 14.14zM248.414 431.813c0-5.524-4.476-10-10-10h-50.781c-5.524 0-10 4.476-10 10s4.476 10 10 10h50.781c5.524 0 10-4.477 10-10zM187.633 401.813h101.562c5.524 0 10-4.477 10-10s-4.476-10-10-10H187.633c-5.524 0-10 4.476-10 10s4.476 10 10 10zM158.21 492c-2.64 0-5.21 1.07-7.081 2.93-1.86 1.86-2.93 4.441-2.93 7.07s1.07 5.21 2.93 7.07a10.107 10.107 0 0 0 7.082 2.93c2.629 0 5.21-1.07 7.07-2.93 1.86-1.86 2.918-4.441 2.918-7.07s-1.058-5.21-2.918-7.07a10.08 10.08 0 0 0-7.07-2.93zM251.86 137.832l-59.048-32.426a10.005 10.005 0 0 0-9.625 0l-59.046 32.426a10.003 10.003 0 0 0-5.188 8.766v64.843c0 3.653 1.988 7.012 5.188 8.77l59.046 32.422c1.5.82 3.157 1.234 4.813 1.234s3.313-.414 4.813-1.234l59.046-32.422a10.004 10.004 0 0 0 5.188-8.77v-64.843a9.994 9.994 0 0 0-5.188-8.766zm-63.84 29.77-38.274-21.016L188 125.582l38.27 21.016zm-49.067-4.106 39.082 21.461v42.027l-39.082-21.457zm59.082 63.45v-42.028l39.012-21.422v42.027zM502 0h-56c-5.523 0-10 4.477-10 10v47.582h-7.566C410.55 57.582 396 72.132 396 90.02v113.496c0 5.523 4.477 10 10 10s10-4.477 10-10V90.02c0-6.86 5.578-12.434 12.434-12.434H436V417.93c0 1.074.172 2.14.512 3.16l28 84.07c1.36 4.082 5.183 6.84 9.488 6.84s8.129-2.758 9.488-6.84l28-84.07c.34-1.02.512-2.086.512-3.16V282.832c0-5.523-4.477-10-10-10s-10 4.477-10 10V407.93h-36V77.582h36v125.25c0 5.523 4.477 10 10 10s10-4.477 10-10V10c0-5.523-4.477-10-10-10zm-28 470.355-14.129-42.425h28.258zM456 57.582V20h36v37.582zm0 0" fill="#1e64f0" opacity="1" data-original="#000000" class=""/><path d="M502 232.828c-2.629 0-5.21 1.07-7.07 2.934a10.07 10.07 0 0 0-2.93 7.066c0 2.64 1.07 5.211 2.93 7.07 1.86 1.872 4.441 2.93 7.07 2.93s5.21-1.058 7.07-2.93c1.86-1.859 2.93-4.43 2.93-7.07a10.07 10.07 0 0 0-2.93-7.066 10.067 10.067 0 0 0-7.07-2.934zm0 0" fill="#1e64f0" opacity="1" data-original="#000000" class=""/></g></svg>